<?xml version="1.0" encoding="UTF-8"?>
<svg id="Capa_2" data-name="Capa 2" xmlns="http://www.w3.org/2000/svg" viewBox="0 0 249.44 249.44">
  <defs>
    <style>
      .cls-1 {
        fill: #111113;
      }

      .cls-2 {
        fill: #fff;
      }
    </style>
  </defs>
  <g id="Capa_2-2" data-name="Capa 2">
    <g>
      <path class="cls-1" d="M249.44,124.72c0,68.88-55.84,124.72-124.72,124.72h0C55.84,249.44,0,193.6,0,124.72h0C0,55.84,55.84,0,124.72,0h0c68.88,0,124.72,55.84,124.72,124.72h0Z"/>
      <g>
        <path class="cls-2" d="M40.41,70.39h57.36c12.92.85,23.63,8,26.17,21.18,2.01,10.47-.49,21.92-11.52,25.75l-2.71.8c3.79.08,7.44,1.34,10.39,3.71,9.17,7.34,9.83,25.5,5.62,35.59-4.89,11.71-16.89,16.85-28.96,17.62h-56.35v-104.65ZM64.53,112.24h29.42c8.9.46,9.64-13.47,6.89-19.02-.75-1.51-3.33-4.08-5.11-4.08h-31.2v23.1ZM64.53,156.27h29.8c10.9-.04,13.64-12.5,10.17-20.89-1.21-2.92-5.02-6.8-8.38-6.8h-31.58v27.69Z"/>
        <path class="cls-2" d="M154.62,142.49c.07,5.32,1.51,10.51,5.68,14.03,7.5,6.33,27.59,5.8,29.27-6.07.06-.42-.13-.92.21-1.2h18.44c.16,9.07-3.61,17.06-11.24,22-12.25,7.93-34.53,7.87-47.16.86-24.98-13.85-22.7-56.73,1.4-70.23,12.2-6.83,32.09-6.94,43.64,1.32,11.09,7.93,14.84,22.95,14.25,36.03-.04.84-.1,2.14-.26,2.93-.03.14-.05.24-.19.32h-54.04ZM188.57,128.32c-.15-6.87-3.67-13.34-10.59-15.25-3.86-1.06-8.57-.86-12.32.57-6.09,2.33-10.05,8.41-11.16,14.68h34.07Z"/>
        <rect class="cls-2" x="149.77" y="76.51" width="43.26" height="13.02"/>
      </g>
    </g>
  </g>
</svg>