<?xml version="1.0" encoding="UTF-8"?>
<svg id="Capa_2" data-name="Capa 2" xmlns="http://www.w3.org/2000/svg" viewBox="0 0 249.43 249.44">
  <defs>
    <style>
      .cls-1 {
        fill: #111113;
      }

      .cls-2 {
        fill: #fff;
      }
    </style>
  </defs>
  <g id="Capa_2-2" data-name="Capa 2">
    <g>
      <path class="cls-1" d="M249.43,124.72c0,68.88-55.84,124.72-124.71,124.72h0C55.84,249.44,0,193.6,0,124.72h0C0,55.84,55.84,0,124.72,0h0c68.88,0,124.71,55.84,124.71,124.72h0Z"/>
      <path class="cls-2" d="M178.86,156.3c0,12.45-10.11,22.56-22.55,22.56h-63.16c-12.45,0-22.56-10.11-22.56-22.56v-63.16c0-12.45,10.11-22.56,22.56-22.56h63.16c12.45,0,22.55,10.11,22.55,22.56v63.16h0ZM158.56,59.3h-67.68c-17.43,0-31.58,14.14-31.58,31.58v67.67c0,17.44,14.15,31.58,31.58,31.58h67.68c17.44,0,31.58-14.14,31.58-31.58v-67.67c0-17.44-14.14-31.58-31.58-31.58h0Z"/>
      <path class="cls-2" d="M124.78,147.28c-12.43,0-22.56-10.13-22.56-22.56s10.13-22.56,22.56-22.56,22.56,10.13,22.56,22.56-10.13,22.56-22.56,22.56h0ZM124.78,90.88c-18.68,0-33.84,15.16-33.84,33.84s15.15,33.84,33.84,33.84,33.84-15.16,33.84-33.84-15.16-33.84-33.84-33.84h0Z"/>
      <path class="cls-2" d="M160.88,95.39c-3.74,0-6.77-3.04-6.77-6.77s3.03-6.77,6.77-6.77,6.77,3.04,6.77,6.77-3.04,6.77-6.77,6.77h0Z"/>
    </g>
  </g>
</svg>