<?xml version="1.0" encoding="UTF-8"?>
<svg id="Capa_2" data-name="Capa 2" xmlns="http://www.w3.org/2000/svg" viewBox="0 0 249.43 249.43">
  <defs>
    <style>
      .cls-1 {
        fill: #111113;
      }

      .cls-2 {
        fill: #fff;
      }
    </style>
  </defs>
  <g id="Capa_2-2" data-name="Capa 2">
    <g>
      <path class="cls-1" d="M249.43,124.71c0,68.88-55.84,124.72-124.71,124.72h0C55.84,249.43,0,193.6,0,124.71h0C0,55.84,55.84,0,124.72,0h0c68.88,0,124.71,55.84,124.71,124.71h0Z"/>
      <path class="cls-2" d="M126.76,179.06c-10.9,0-21.1-2.94-29.88-8.08-.83-.46-1.63-.96-2.4-1.48l-23.94,6.38,6.38-23.94c-6.05-9.3-9.55-20.38-9.55-32.29,0-32.75,26.65-59.4,59.4-59.4s59.41,26.65,59.41,59.4-26.66,59.4-59.41,59.4h0ZM124.27,44.8c-38.55,1.25-70.38,32.47-72.31,70.99-.7,13.89,2.37,27.01,8.32,38.41l-8.37,37.48c-.36,1.69,1.14,3.2,2.84,2.84l37.48-8.37h.03c11.32,5.91,24.31,8.98,38.09,8.34,38.46-1.78,69.77-33.38,71.26-71.85,1.68-43.57-33.83-79.25-77.34-77.83h0Z"/>
      <path class="cls-2" d="M161.99,145.81c-1.04,1.55-2.12,3-3.85,4.74-3.81,3.8-9.09,5.73-14.45,5.18-9.61-.99-23.26-6.3-34.98-18-11.73-11.73-17.04-25.38-18-34.98-.55-5.36,1.37-10.65,5.18-14.45,1.73-1.73,3.18-2.82,4.74-3.89,2.88-1.94,6.78-.65,7.87,2.62l3.94,11.81c1.09,3.24.6,5.28-.8,6.65l-3.14,3.16c-1.55,1.55-1.81,3.96-.62,5.83,1.74,2.72,5,7.07,11.01,13.08,6.01,6.01,10.36,9.27,13.08,11,1.86,1.19,4.27.94,5.83-.62l3.16-3.13c1.37-1.4,3.41-1.89,6.65-.8l11.81,3.94c3.26,1.09,4.56,5,2.59,7.87h0Z"/>
    </g>
  </g>
</svg>